<svg width="48" height="48" viewBox="0 0 48 48" fill="none" xmlns="http://www.w3.org/2000/svg">
<circle cx="24" cy="24" r="24" fill="#D1FADF" fill-opacity="0.5"/>
<path d="M24.4364 13.5273C18.4115 13.5273 13.5273 18.4114 13.5273 24.4364C13.5273 30.4613 18.4115 35.3455 24.4364 35.3455C30.4614 35.3455 35.3455 30.4613 35.3455 24.4364C35.3455 18.4114 30.4614 13.5273 24.4364 13.5273Z" stroke="#2ECC40" stroke-width="2" stroke-linecap="round" stroke-linejoin="round"/>
<path d="M20.0728 34.4377V26.6182L24.4364 18.9818L28.8 26.6182V34.4377" stroke="#2ECC40" stroke-width="2" stroke-linecap="round" stroke-linejoin="round"/>
<path d="M20.0728 26.6182C20.0728 26.6182 21.3019 27.7091 22.2546 27.7091C23.2072 27.7091 24.4364 26.6182 24.4364 26.6182C24.4364 26.6182 25.6656 27.7091 26.6182 27.7091C27.5708 27.7091 28.8 26.6182 28.8 26.6182" stroke="#2ECC40" stroke-width="2" stroke-linecap="round" stroke-linejoin="round"/>
</svg>
