<svg width="49" height="48" viewBox="0 0 49 48" fill="none" xmlns="http://www.w3.org/2000/svg">
<circle cx="24.3333" cy="24" r="24" fill="#D1FADF" fill-opacity="0.5"/>
<path d="M28.6398 20.4036C27.6505 19.5203 26.3328 18.9818 24.8886 18.9818C21.81 18.9818 19.3152 21.4243 19.3152 24.4364C19.3152 27.4484 21.81 29.8909 24.8886 29.8909C28.6731 29.8909 30.0715 27.0869 30.2243 24.8909H25.6872" stroke="#2ECC40" stroke-width="2"/>
<path d="M34.5879 19.6182V29.2546C34.5879 32.016 32.3493 34.2546 29.5879 34.2546H19.9515C17.1901 34.2546 14.9515 32.016 14.9515 29.2546V19.6182C14.9515 16.8568 17.1901 14.6182 19.9515 14.6182H29.5879C32.3493 14.6182 34.5879 16.8568 34.5879 19.6182Z" stroke="#2ECC40" stroke-width="2" stroke-linecap="round" stroke-linejoin="round"/>
</svg>
