<svg width="49" height="48" viewBox="0 0 49 48" fill="none" xmlns="http://www.w3.org/2000/svg">
<circle cx="24.3333" cy="24" r="24" fill="#D1FADF" fill-opacity="0.5"/>
<path d="M33.4968 24.4364V17.594C33.4968 17.4349 33.4336 17.2823 33.321 17.1697L29.8543 13.703C29.7418 13.5905 29.5892 13.5273 29.4301 13.5273H16.6422C16.3109 13.5273 16.0422 13.7959 16.0422 14.1273V34.7455C16.0422 35.0768 16.3109 35.3455 16.6422 35.3455H23.6786" stroke="#2ECC40" stroke-width="2" stroke-linecap="round" stroke-linejoin="round"/>
<path d="M20.406 22.2546H29.1333M20.406 17.8909H24.7696M20.406 26.6182H23.6787" stroke="#2ECC40" stroke-width="2" stroke-linecap="round" stroke-linejoin="round"/>
<path d="M31.2651 29.8248L32.356 28.7339C32.8337 28.2562 33.6082 28.2562 34.086 28.7339V28.7339C34.5637 29.2116 34.5637 29.9861 34.086 30.4639L32.995 31.5548M31.2651 29.8248L27.9811 33.1088C27.8312 33.2587 27.7328 33.4523 27.7002 33.6618L27.4309 35.389L29.158 35.1197C29.3674 35.0871 29.5611 34.9887 29.711 34.8388L32.995 31.5548M31.2651 29.8248L32.995 31.5548" stroke="#2ECC40" stroke-width="1.5" stroke-linecap="round" stroke-linejoin="round"/>
<path d="M29.1333 13.5273V17.2909C29.1333 17.6223 29.4019 17.8909 29.7333 17.8909H33.4969" stroke="#2ECC40" stroke-width="2" stroke-linecap="round" stroke-linejoin="round"/>
</svg>
