<svg width="48" height="48" viewBox="0 0 48 48" fill="none" xmlns="http://www.w3.org/2000/svg">
<circle cx="24" cy="24" r="24" fill="#94C0D4" fill-opacity="0.3"/>
<path d="M26.1818 24.4338C26.1818 21.7155 23.6542 18.9818 20.5714 18.9818C20.2063 18.9818 19.0026 18.9818 18.7013 18.9818C15.6028 18.9818 13.0909 21.4227 13.0909 24.4338C13.0909 27.0284 14.9561 29.1997 17.4545 29.7506C17.8555 29.839 18.2728 29.8857 18.7013 29.8857" stroke="#048ECB" stroke-width="2" stroke-linecap="round" stroke-linejoin="round"/>
<path d="M21.8182 24.4338C21.8182 27.152 24.3458 29.8857 27.4286 29.8857C27.7937 29.8857 28.9974 29.8857 29.2987 29.8857C32.3972 29.8857 34.9091 27.4448 34.9091 24.4338C34.9091 21.8391 33.0439 19.6678 30.5455 19.1169C30.1445 19.0285 29.7272 18.9818 29.2987 18.9818" stroke="#048ECB" stroke-width="2" stroke-linecap="round" stroke-linejoin="round"/>
</svg>
