<svg width="48" height="48" viewBox="0 0 48 48" fill="none" xmlns="http://www.w3.org/2000/svg">
<circle cx="24" cy="24" r="24" fill="#E0B9EA" fill-opacity="0.3"/>
<path d="M27.2727 24.4364V27.7091" stroke="#AB07E4" stroke-width="2" stroke-linecap="round" stroke-linejoin="round"/>
<path d="M24 14.6182V17.8909" stroke="#AB07E4" stroke-width="2" stroke-linecap="round" stroke-linejoin="round"/>
<path d="M30.5455 24.4364V27.7091" stroke="#AB07E4" stroke-width="2" stroke-linecap="round" stroke-linejoin="round"/>
<path d="M24 30.9818H33.8182" stroke="#AB07E4" stroke-width="2" stroke-linecap="round" stroke-linejoin="round"/>
<path d="M30.5455 34.2545H33.8182" stroke="#AB07E4" stroke-width="2" stroke-linecap="round" stroke-linejoin="round"/>
<path d="M17.4545 24.4364H20.7273" stroke="#AB07E4" stroke-width="2" stroke-linecap="round" stroke-linejoin="round"/>
<path d="M17.4545 17.903L17.4655 17.8909" stroke="#AB07E4" stroke-width="2" stroke-linecap="round" stroke-linejoin="round"/>
<path d="M24 24.4485L24.0109 24.4364" stroke="#AB07E4" stroke-width="2" stroke-linecap="round" stroke-linejoin="round"/>
<path d="M14.1818 24.4485L14.1927 24.4364" stroke="#AB07E4" stroke-width="2" stroke-linecap="round" stroke-linejoin="round"/>
<path d="M24 21.1758L24.0109 21.1636" stroke="#AB07E4" stroke-width="2" stroke-linecap="round" stroke-linejoin="round"/>
<path d="M24 27.7212L24.0109 27.7091" stroke="#AB07E4" stroke-width="2" stroke-linecap="round" stroke-linejoin="round"/>
<path d="M27.2727 34.2667L27.2836 34.2545" stroke="#AB07E4" stroke-width="2" stroke-linecap="round" stroke-linejoin="round"/>
<path d="M24 34.2667L24.0109 34.2545" stroke="#AB07E4" stroke-width="2" stroke-linecap="round" stroke-linejoin="round"/>
<path d="M33.8182 24.4485L33.8291 24.4364" stroke="#AB07E4" stroke-width="2" stroke-linecap="round" stroke-linejoin="round"/>
<path d="M33.8182 27.7212L33.8291 27.7091" stroke="#AB07E4" stroke-width="2" stroke-linecap="round" stroke-linejoin="round"/>
<path d="M30.5455 17.903L30.5564 17.8909" stroke="#AB07E4" stroke-width="2" stroke-linecap="round" stroke-linejoin="round"/>
<path d="M20.7273 15.2727V20.5091C20.7273 20.8706 20.4342 21.1636 20.0727 21.1636H14.8364C14.4749 21.1636 14.1818 20.8706 14.1818 20.5091V15.2727C14.1818 14.9112 14.4749 14.6182 14.8364 14.6182H20.0727C20.4342 14.6182 20.7273 14.9112 20.7273 15.2727Z" stroke="#AB07E4" stroke-width="2" stroke-linecap="round" stroke-linejoin="round"/>
<path d="M33.8182 15.2727V20.5091C33.8182 20.8706 33.5252 21.1636 33.1636 21.1636H27.9273C27.5657 21.1636 27.2727 20.8706 27.2727 20.5091V15.2727C27.2727 14.9112 27.5657 14.6182 27.9273 14.6182H33.1636C33.5252 14.6182 33.8182 14.9112 33.8182 15.2727Z" stroke="#AB07E4" stroke-width="2" stroke-linecap="round" stroke-linejoin="round"/>
<path d="M17.4545 30.9939L17.4655 30.9818" stroke="#AB07E4" stroke-width="2" stroke-linecap="round" stroke-linejoin="round"/>
<path d="M20.7273 28.3637V33.6C20.7273 33.9615 20.4342 34.2546 20.0727 34.2546H14.8364C14.4749 34.2546 14.1818 33.9615 14.1818 33.6V28.3637C14.1818 28.0021 14.4749 27.7091 14.8364 27.7091H20.0727C20.4342 27.7091 20.7273 28.0021 20.7273 28.3637Z" stroke="#AB07E4" stroke-width="2" stroke-linecap="round" stroke-linejoin="round"/>
</svg>
