<svg width="441" height="564" viewBox="0 0 441 564" fill="none" xmlns="http://www.w3.org/2000/svg">
<path d="M6.2 384.6V362.8L72.2 274H106.2L41.6 362.8L25.8 358.2H136V384.6H6.2ZM81.6 414V384.6L82.6 358.2V332H113.2V414H81.6ZM220.191 416.4C208.724 416.4 198.457 413.6 189.391 408C180.324 402.266 173.191 394 167.991 383.2C162.791 372.4 160.191 359.333 160.191 344C160.191 328.666 162.791 315.6 167.991 304.8C173.191 294 180.324 285.8 189.391 280.2C198.457 274.466 208.724 271.6 220.191 271.6C231.791 271.6 242.057 274.466 250.991 280.2C260.057 285.8 267.191 294 272.391 304.8C277.591 315.6 280.191 328.666 280.191 344C280.191 359.333 277.591 372.4 272.391 383.2C267.191 394 260.057 402.266 250.991 408C242.057 413.6 231.791 416.4 220.191 416.4ZM220.191 389C225.657 389 230.391 387.466 234.391 384.4C238.524 381.333 241.724 376.466 243.991 369.8C246.391 363.133 247.591 354.533 247.591 344C247.591 333.466 246.391 324.866 243.991 318.2C241.724 311.533 238.524 306.666 234.391 303.6C230.391 300.533 225.657 299 220.191 299C214.857 299 210.124 300.533 205.991 303.6C201.991 306.666 198.791 311.533 196.391 318.2C194.124 324.866 192.991 333.466 192.991 344C192.991 354.533 194.124 363.133 196.391 369.8C198.791 376.466 201.991 381.333 205.991 384.4C210.124 387.466 214.857 389 220.191 389ZM308.833 384.6V362.8L374.833 274H408.833L344.233 362.8L328.433 358.2H438.633V384.6H308.833ZM384.233 414V384.6L385.233 358.2V332H415.833V414H384.233Z" fill="#1B1B1B"/>
<path d="M110.634 472.216C109.626 472.216 108.66 472.084 107.736 471.82C106.812 471.544 106.068 471.19 105.504 470.758L106.494 468.562C107.034 468.946 107.67 469.264 108.402 469.516C109.146 469.756 109.896 469.876 110.652 469.876C111.228 469.876 111.69 469.822 112.038 469.714C112.398 469.594 112.662 469.432 112.83 469.228C112.998 469.024 113.082 468.79 113.082 468.526C113.082 468.19 112.95 467.926 112.686 467.734C112.422 467.53 112.074 467.368 111.642 467.248C111.21 467.116 110.73 466.996 110.202 466.888C109.686 466.768 109.164 466.624 108.636 466.456C108.12 466.288 107.646 466.072 107.214 465.808C106.782 465.544 106.428 465.196 106.152 464.764C105.888 464.332 105.756 463.78 105.756 463.108C105.756 462.388 105.948 461.734 106.332 461.146C106.728 460.546 107.316 460.072 108.096 459.724C108.888 459.364 109.878 459.184 111.066 459.184C111.858 459.184 112.638 459.28 113.406 459.472C114.174 459.652 114.852 459.928 115.44 460.3L114.54 462.514C113.952 462.178 113.364 461.932 112.776 461.776C112.188 461.608 111.612 461.524 111.048 461.524C110.484 461.524 110.022 461.59 109.662 461.722C109.302 461.854 109.044 462.028 108.888 462.244C108.732 462.448 108.654 462.688 108.654 462.964C108.654 463.288 108.786 463.552 109.05 463.756C109.314 463.948 109.662 464.104 110.094 464.224C110.526 464.344 111 464.464 111.516 464.584C112.044 464.704 112.566 464.842 113.082 464.998C113.61 465.154 114.09 465.364 114.522 465.628C114.954 465.892 115.302 466.24 115.566 466.672C115.842 467.104 115.98 467.65 115.98 468.31C115.98 469.018 115.782 469.666 115.386 470.254C114.99 470.842 114.396 471.316 113.604 471.676C112.824 472.036 111.834 472.216 110.634 472.216ZM122.383 472.144C121.351 472.144 120.433 471.928 119.629 471.496C118.837 471.064 118.207 470.476 117.739 469.732C117.283 468.976 117.055 468.118 117.055 467.158C117.055 466.186 117.283 465.328 117.739 464.584C118.207 463.828 118.837 463.24 119.629 462.82C120.433 462.388 121.351 462.172 122.383 462.172C123.403 462.172 124.315 462.388 125.119 462.82C125.923 463.24 126.553 463.822 127.009 464.566C127.465 465.31 127.693 466.174 127.693 467.158C127.693 468.118 127.465 468.976 127.009 469.732C126.553 470.476 125.923 471.064 125.119 471.496C124.315 471.928 123.403 472.144 122.383 472.144ZM122.383 469.84C122.851 469.84 123.271 469.732 123.643 469.516C124.015 469.3 124.309 468.994 124.525 468.598C124.741 468.19 124.849 467.71 124.849 467.158C124.849 466.594 124.741 466.114 124.525 465.718C124.309 465.322 124.015 465.016 123.643 464.8C123.271 464.584 122.851 464.476 122.383 464.476C121.915 464.476 121.495 464.584 121.123 464.8C120.751 465.016 120.451 465.322 120.223 465.718C120.007 466.114 119.899 466.594 119.899 467.158C119.899 467.71 120.007 468.19 120.223 468.598C120.451 468.994 120.751 469.3 121.123 469.516C121.495 469.732 121.915 469.84 122.383 469.84ZM141.971 462.172C142.739 462.172 143.417 462.328 144.005 462.64C144.605 462.94 145.073 463.408 145.409 464.044C145.757 464.668 145.931 465.472 145.931 466.456V472H143.123V466.888C143.123 466.108 142.961 465.532 142.637 465.16C142.313 464.788 141.857 464.602 141.269 464.602C140.861 464.602 140.495 464.698 140.171 464.89C139.847 465.07 139.595 465.346 139.415 465.718C139.235 466.09 139.145 466.564 139.145 467.14V472H136.337V466.888C136.337 466.108 136.175 465.532 135.851 465.16C135.539 464.788 135.089 464.602 134.501 464.602C134.093 464.602 133.727 464.698 133.403 464.89C133.079 465.07 132.827 465.346 132.647 465.718C132.467 466.09 132.377 466.564 132.377 467.14V472H129.569V462.316H132.251V464.962L131.747 464.188C132.083 463.528 132.557 463.03 133.169 462.694C133.793 462.346 134.501 462.172 135.293 462.172C136.181 462.172 136.955 462.4 137.615 462.856C138.287 463.3 138.731 463.984 138.947 464.908L137.957 464.638C138.281 463.882 138.797 463.282 139.505 462.838C140.225 462.394 141.047 462.172 141.971 462.172ZM153.325 472.144C152.221 472.144 151.249 471.928 150.409 471.496C149.581 471.064 148.939 470.476 148.483 469.732C148.027 468.976 147.799 468.118 147.799 467.158C147.799 466.186 148.021 465.328 148.465 464.584C148.921 463.828 149.539 463.24 150.319 462.82C151.099 462.388 151.981 462.172 152.965 462.172C153.913 462.172 154.765 462.376 155.521 462.784C156.289 463.18 156.895 463.756 157.339 464.512C157.783 465.256 158.005 466.15 158.005 467.194C158.005 467.302 157.999 467.428 157.987 467.572C157.975 467.704 157.963 467.83 157.951 467.95H150.085V466.312H156.475L155.395 466.798C155.395 466.294 155.293 465.856 155.089 465.484C154.885 465.112 154.603 464.824 154.243 464.62C153.883 464.404 153.463 464.296 152.983 464.296C152.503 464.296 152.077 464.404 151.705 464.62C151.345 464.824 151.063 465.118 150.859 465.502C150.655 465.874 150.553 466.318 150.553 466.834V467.266C150.553 467.794 150.667 468.262 150.895 468.67C151.135 469.066 151.465 469.372 151.885 469.588C152.317 469.792 152.821 469.894 153.397 469.894C153.913 469.894 154.363 469.816 154.747 469.66C155.143 469.504 155.503 469.27 155.827 468.958L157.321 470.578C156.877 471.082 156.319 471.472 155.647 471.748C154.975 472.012 154.201 472.144 153.325 472.144ZM163.834 472.144C162.694 472.144 161.806 471.856 161.17 471.28C160.534 470.692 160.216 469.822 160.216 468.67V460.174H163.024V468.634C163.024 469.042 163.132 469.36 163.348 469.588C163.564 469.804 163.858 469.912 164.23 469.912C164.674 469.912 165.052 469.792 165.364 469.552L166.12 471.532C165.832 471.736 165.484 471.892 165.076 472C164.68 472.096 164.266 472.144 163.834 472.144ZM158.722 464.692V462.532H165.436V464.692H158.722ZM173.582 462.172C174.35 462.172 175.034 462.328 175.634 462.64C176.246 462.94 176.726 463.408 177.074 464.044C177.422 464.668 177.596 465.472 177.596 466.456V472H174.788V466.888C174.788 466.108 174.614 465.532 174.266 465.16C173.93 464.788 173.45 464.602 172.826 464.602C172.382 464.602 171.98 464.698 171.62 464.89C171.272 465.07 170.996 465.352 170.792 465.736C170.6 466.12 170.504 466.612 170.504 467.212V472H167.696V458.644H170.504V464.998L169.874 464.188C170.222 463.54 170.72 463.042 171.368 462.694C172.016 462.346 172.754 462.172 173.582 462.172ZM180.142 472V462.316H182.95V472H180.142ZM181.546 460.966C181.03 460.966 180.61 460.816 180.286 460.516C179.962 460.216 179.8 459.844 179.8 459.4C179.8 458.956 179.962 458.584 180.286 458.284C180.61 457.984 181.03 457.834 181.546 457.834C182.062 457.834 182.482 457.978 182.806 458.266C183.13 458.542 183.292 458.902 183.292 459.346C183.292 459.814 183.13 460.204 182.806 460.516C182.494 460.816 182.074 460.966 181.546 460.966ZM191.442 462.172C192.21 462.172 192.894 462.328 193.494 462.64C194.106 462.94 194.586 463.408 194.934 464.044C195.282 464.668 195.456 465.472 195.456 466.456V472H192.648V466.888C192.648 466.108 192.474 465.532 192.126 465.16C191.79 464.788 191.31 464.602 190.686 464.602C190.242 464.602 189.84 464.698 189.48 464.89C189.132 465.07 188.856 465.352 188.652 465.736C188.46 466.12 188.364 466.612 188.364 467.212V472H185.556V462.316H188.238V464.998L187.734 464.188C188.082 463.54 188.58 463.042 189.228 462.694C189.876 462.346 190.614 462.172 191.442 462.172ZM202.625 475.636C201.713 475.636 200.831 475.522 199.979 475.294C199.139 475.078 198.437 474.748 197.873 474.304L198.989 472.288C199.397 472.624 199.913 472.888 200.537 473.08C201.173 473.284 201.797 473.386 202.409 473.386C203.405 473.386 204.125 473.164 204.569 472.72C205.025 472.276 205.253 471.616 205.253 470.74V469.282L205.433 466.852L205.397 464.404V462.316H208.061V470.38C208.061 472.18 207.593 473.506 206.657 474.358C205.721 475.21 204.377 475.636 202.625 475.636ZM202.193 471.532C201.293 471.532 200.477 471.34 199.745 470.956C199.025 470.56 198.443 470.014 197.999 469.318C197.567 468.61 197.351 467.788 197.351 466.852C197.351 465.904 197.567 465.082 197.999 464.386C198.443 463.678 199.025 463.132 199.745 462.748C200.477 462.364 201.293 462.172 202.193 462.172C203.009 462.172 203.729 462.34 204.353 462.676C204.977 463 205.463 463.51 205.811 464.206C206.159 464.89 206.333 465.772 206.333 466.852C206.333 467.92 206.159 468.802 205.811 469.498C205.463 470.182 204.977 470.692 204.353 471.028C203.729 471.364 203.009 471.532 202.193 471.532ZM202.751 469.228C203.243 469.228 203.681 469.132 204.065 468.94C204.449 468.736 204.749 468.454 204.965 468.094C205.181 467.734 205.289 467.32 205.289 466.852C205.289 466.372 205.181 465.958 204.965 465.61C204.749 465.25 204.449 464.974 204.065 464.782C203.681 464.578 203.243 464.476 202.751 464.476C202.259 464.476 201.821 464.578 201.437 464.782C201.053 464.974 200.747 465.25 200.519 465.61C200.303 465.958 200.195 466.372 200.195 466.852C200.195 467.32 200.303 467.734 200.519 468.094C200.747 468.454 201.053 468.736 201.437 468.94C201.821 469.132 202.259 469.228 202.751 469.228ZM217.987 472L214.495 462.316H217.141L220.039 470.65H218.779L221.803 462.316H224.179L227.113 470.65H225.853L228.841 462.316H231.325L227.815 472H225.097L222.523 464.854H223.351L220.687 472H217.987ZM237.172 472.144C236.068 472.144 235.096 471.928 234.256 471.496C233.428 471.064 232.786 470.476 232.33 469.732C231.874 468.976 231.646 468.118 231.646 467.158C231.646 466.186 231.868 465.328 232.312 464.584C232.768 463.828 233.386 463.24 234.166 462.82C234.946 462.388 235.828 462.172 236.812 462.172C237.76 462.172 238.612 462.376 239.368 462.784C240.136 463.18 240.742 463.756 241.186 464.512C241.63 465.256 241.852 466.15 241.852 467.194C241.852 467.302 241.846 467.428 241.834 467.572C241.822 467.704 241.81 467.83 241.798 467.95H233.932V466.312H240.322L239.242 466.798C239.242 466.294 239.14 465.856 238.936 465.484C238.732 465.112 238.45 464.824 238.09 464.62C237.73 464.404 237.31 464.296 236.83 464.296C236.35 464.296 235.924 464.404 235.552 464.62C235.192 464.824 234.91 465.118 234.706 465.502C234.502 465.874 234.4 466.318 234.4 466.834V467.266C234.4 467.794 234.514 468.262 234.742 468.67C234.982 469.066 235.312 469.372 235.732 469.588C236.164 469.792 236.668 469.894 237.244 469.894C237.76 469.894 238.21 469.816 238.594 469.66C238.99 469.504 239.35 469.27 239.674 468.958L241.168 470.578C240.724 471.082 240.166 471.472 239.494 471.748C238.822 472.012 238.048 472.144 237.172 472.144ZM249.608 462.172C250.376 462.172 251.06 462.328 251.66 462.64C252.272 462.94 252.752 463.408 253.1 464.044C253.448 464.668 253.622 465.472 253.622 466.456V472H250.814V466.888C250.814 466.108 250.64 465.532 250.292 465.16C249.956 464.788 249.476 464.602 248.852 464.602C248.408 464.602 248.006 464.698 247.646 464.89C247.298 465.07 247.022 465.352 246.818 465.736C246.626 466.12 246.53 466.612 246.53 467.212V472H243.722V462.316H246.404V464.998L245.9 464.188C246.248 463.54 246.746 463.042 247.394 462.694C248.042 462.346 248.78 462.172 249.608 462.172ZM260.127 472.144C258.987 472.144 258.099 471.856 257.463 471.28C256.827 470.692 256.509 469.822 256.509 468.67V460.174H259.317V468.634C259.317 469.042 259.425 469.36 259.641 469.588C259.857 469.804 260.151 469.912 260.523 469.912C260.967 469.912 261.345 469.792 261.657 469.552L262.413 471.532C262.125 471.736 261.777 471.892 261.369 472C260.973 472.096 260.559 472.144 260.127 472.144ZM255.015 464.692V462.532H261.729V464.692H255.015ZM271.301 472L267.809 462.316H270.455L273.353 470.65H272.093L275.117 462.316H277.493L280.427 470.65H279.167L282.155 462.316H284.639L281.129 472H278.411L275.837 464.854H276.665L274.001 472H271.301ZM285.944 472V462.316H288.626V465.052L288.248 464.26C288.536 463.576 288.998 463.06 289.634 462.712C290.27 462.352 291.044 462.172 291.956 462.172V464.764C291.836 464.752 291.728 464.746 291.632 464.746C291.536 464.734 291.434 464.728 291.326 464.728C290.558 464.728 289.934 464.95 289.454 465.394C288.986 465.826 288.752 466.504 288.752 467.428V472H285.944ZM298.164 472.144C297.132 472.144 296.214 471.928 295.41 471.496C294.618 471.064 293.988 470.476 293.52 469.732C293.064 468.976 292.836 468.118 292.836 467.158C292.836 466.186 293.064 465.328 293.52 464.584C293.988 463.828 294.618 463.24 295.41 462.82C296.214 462.388 297.132 462.172 298.164 462.172C299.184 462.172 300.096 462.388 300.9 462.82C301.704 463.24 302.334 463.822 302.79 464.566C303.246 465.31 303.474 466.174 303.474 467.158C303.474 468.118 303.246 468.976 302.79 469.732C302.334 470.476 301.704 471.064 300.9 471.496C300.096 471.928 299.184 472.144 298.164 472.144ZM298.164 469.84C298.632 469.84 299.052 469.732 299.424 469.516C299.796 469.3 300.09 468.994 300.306 468.598C300.522 468.19 300.63 467.71 300.63 467.158C300.63 466.594 300.522 466.114 300.306 465.718C300.09 465.322 299.796 465.016 299.424 464.8C299.052 464.584 298.632 464.476 298.164 464.476C297.696 464.476 297.276 464.584 296.904 464.8C296.532 465.016 296.232 465.322 296.004 465.718C295.788 466.114 295.68 466.594 295.68 467.158C295.68 467.71 295.788 468.19 296.004 468.598C296.232 468.994 296.532 469.3 296.904 469.516C297.276 469.732 297.696 469.84 298.164 469.84ZM311.237 462.172C312.005 462.172 312.689 462.328 313.289 462.64C313.901 462.94 314.381 463.408 314.729 464.044C315.077 464.668 315.251 465.472 315.251 466.456V472H312.443V466.888C312.443 466.108 312.269 465.532 311.921 465.16C311.585 464.788 311.105 464.602 310.481 464.602C310.037 464.602 309.635 464.698 309.275 464.89C308.927 465.07 308.651 465.352 308.447 465.736C308.255 466.12 308.159 466.612 308.159 467.212V472H305.351V462.316H308.033V464.998L307.529 464.188C307.877 463.54 308.375 463.042 309.023 462.694C309.671 462.346 310.409 462.172 311.237 462.172ZM322.42 475.636C321.508 475.636 320.626 475.522 319.774 475.294C318.934 475.078 318.232 474.748 317.668 474.304L318.784 472.288C319.192 472.624 319.708 472.888 320.332 473.08C320.968 473.284 321.592 473.386 322.204 473.386C323.2 473.386 323.92 473.164 324.364 472.72C324.82 472.276 325.048 471.616 325.048 470.74V469.282L325.228 466.852L325.192 464.404V462.316H327.856V470.38C327.856 472.18 327.388 473.506 326.452 474.358C325.516 475.21 324.172 475.636 322.42 475.636ZM321.988 471.532C321.088 471.532 320.272 471.34 319.54 470.956C318.82 470.56 318.238 470.014 317.794 469.318C317.362 468.61 317.146 467.788 317.146 466.852C317.146 465.904 317.362 465.082 317.794 464.386C318.238 463.678 318.82 463.132 319.54 462.748C320.272 462.364 321.088 462.172 321.988 462.172C322.804 462.172 323.524 462.34 324.148 462.676C324.772 463 325.258 463.51 325.606 464.206C325.954 464.89 326.128 465.772 326.128 466.852C326.128 467.92 325.954 468.802 325.606 469.498C325.258 470.182 324.772 470.692 324.148 471.028C323.524 471.364 322.804 471.532 321.988 471.532ZM322.546 469.228C323.038 469.228 323.476 469.132 323.86 468.94C324.244 468.736 324.544 468.454 324.76 468.094C324.976 467.734 325.084 467.32 325.084 466.852C325.084 466.372 324.976 465.958 324.76 465.61C324.544 465.25 324.244 464.974 323.86 464.782C323.476 464.578 323.038 464.476 322.546 464.476C322.054 464.476 321.616 464.578 321.232 464.782C320.848 464.974 320.542 465.25 320.314 465.61C320.098 465.958 319.99 466.372 319.99 466.852C319.99 467.32 320.098 467.734 320.314 468.094C320.542 468.454 320.848 468.736 321.232 468.94C321.616 469.132 322.054 469.228 322.546 469.228ZM331.532 472.144C331.052 472.144 330.638 471.982 330.29 471.658C329.954 471.322 329.786 470.896 329.786 470.38C329.786 469.864 329.954 469.45 330.29 469.138C330.638 468.814 331.052 468.652 331.532 468.652C332.024 468.652 332.438 468.814 332.774 469.138C333.11 469.45 333.278 469.864 333.278 470.38C333.278 470.896 333.11 471.322 332.774 471.658C332.438 471.982 332.024 472.144 331.532 472.144ZM336.243 472.144C335.763 472.144 335.349 471.982 335.001 471.658C334.665 471.322 334.497 470.896 334.497 470.38C334.497 469.864 334.665 469.45 335.001 469.138C335.349 468.814 335.763 468.652 336.243 468.652C336.735 468.652 337.149 468.814 337.485 469.138C337.821 469.45 337.989 469.864 337.989 470.38C337.989 470.896 337.821 471.322 337.485 471.658C337.149 471.982 336.735 472.144 336.243 472.144ZM340.954 472.144C340.474 472.144 340.06 471.982 339.712 471.658C339.376 471.322 339.208 470.896 339.208 470.38C339.208 469.864 339.376 469.45 339.712 469.138C340.06 468.814 340.474 468.652 340.954 468.652C341.446 468.652 341.86 468.814 342.196 469.138C342.532 469.45 342.7 469.864 342.7 470.38C342.7 470.896 342.532 471.322 342.196 471.658C341.86 471.982 341.446 472.144 340.954 472.144Z" fill="#1B1B1B"/>
<g clip-path="url(#clip0_75_30161)">
<path d="M182.582 69.7207C164.887 70.2822 145.056 72.5796 124.695 76.4949C106.061 80.078 88.3441 84.7527 72.7205 90.1475C72.6769 89.9001 72.633 89.6527 72.5965 89.4038C70.2686 75.0004 73.6669 60.2577 82.0652 48.3268C90.4635 36.3959 103.195 28.2232 117.54 25.5557C131.884 22.8881 146.703 25.9372 158.829 34.0513C170.955 42.1654 179.426 54.7008 182.432 68.9782C182.484 69.2279 182.535 69.4739 182.582 69.7207Z" fill="#001F3F"/>
<g opacity="0.1">
<path d="M124.399 24.2148C116.581 24.6508 108.941 26.7248 101.976 30.3022C95.0105 33.8796 88.8745 38.8807 83.9656 44.9813C79.0567 51.0819 75.4844 58.1459 73.4803 65.7155C71.4762 73.285 71.0849 81.1912 72.3319 88.9217C72.3682 89.1706 72.4121 89.418 72.4559 89.6654C77.0975 88.0627 81.9276 86.5253 86.908 85.0594C85.0664 72.1354 87.8076 58.9746 94.6558 47.8606C101.504 36.7465 112.027 28.3807 124.399 24.2148Z" fill="white"/>
</g>
<path d="M207.422 69.4579C199.108 68.8352 190.765 68.6751 182.432 68.9783C168.775 69.4734 155.157 70.7595 141.648 72.8302C136.018 73.6761 130.306 74.6523 124.554 75.7584C119.995 76.6351 115.487 77.5783 111.056 78.5832C98.048 81.4852 85.2093 85.0975 72.5969 89.4039C63.2564 92.57 54.1253 96.3232 45.2582 100.641C24.6132 110.862 14.1581 121.251 15.8194 129.89C17.4807 138.529 31.043 144.3 54.0065 146.135C70.1563 147.429 89.6183 146.684 110.473 144.048C119.083 142.966 127.927 141.555 136.875 139.835C145.853 138.108 154.618 136.129 163.041 133.936C181.556 129.12 198.418 123.276 212.234 116.839C212.307 116.802 212.377 116.77 212.451 116.736C213.383 116.305 214.299 115.865 215.204 115.428C215.528 115.266 215.849 115.109 216.171 114.952C216.188 114.94 216.207 114.931 216.226 114.922C216.533 114.771 216.836 114.618 217.139 114.468C217.744 114.16 218.343 113.858 218.929 113.551C218.957 113.538 218.982 113.525 219.006 113.513C219.516 113.247 220.015 112.983 220.511 112.72C220.915 112.501 221.317 112.286 221.714 112.068C222.005 111.909 222.291 111.751 222.574 111.594C222.781 111.477 222.985 111.366 223.184 111.251C223.457 111.099 223.728 110.944 223.997 110.789C224.11 110.725 224.224 110.661 224.333 110.595C224.592 110.449 224.842 110.302 225.093 110.155C225.364 109.996 225.634 109.833 225.901 109.674C226.125 109.544 226.347 109.409 226.566 109.276C226.75 109.16 226.931 109.049 227.115 108.937C227.618 108.63 228.108 108.318 228.591 108.012C228.832 107.855 229.074 107.701 229.311 107.545C229.545 107.393 229.782 107.237 230.012 107.082C230.391 106.829 230.763 106.578 231.127 106.329C231.302 106.203 231.481 106.081 231.653 105.964C231.784 105.87 231.912 105.781 232.043 105.687C232.137 105.623 232.231 105.555 232.322 105.488C232.661 105.247 232.996 105.003 233.323 104.761C234.581 103.832 235.743 102.906 236.81 101.982C243.512 96.222 246.565 90.6743 245.609 85.7029C243.948 77.0637 230.386 71.2934 207.422 69.4579ZM215.836 114.283C201.3 121.481 182.898 128.017 162.495 133.304C154.198 135.453 145.568 137.399 136.734 139.098C127.929 140.791 119.222 142.183 110.745 143.259C89.8049 145.926 70.2618 146.687 54.0694 145.39C31.4697 143.58 18.1478 138.027 16.5559 129.748C16.4164 129.017 16.3679 128.271 16.4114 127.527C16.8533 119.698 27.0614 110.487 45.5931 101.31C54.3933 97.0252 63.4537 93.2971 72.7209 90.1476C85.4093 85.816 98.3261 82.1848 111.413 79.2705C115.775 78.2828 120.203 77.3576 124.695 76.4949C130.37 75.4037 136.004 74.4387 141.563 73.5989C155.149 71.5086 168.846 70.2137 182.583 69.7207C190.844 69.4254 199.116 69.5865 207.359 70.2032C227.969 71.8535 240.861 76.6186 244.178 83.7212C244.498 84.3971 244.731 85.1105 244.873 85.8445C246.465 94.1229 236.152 104.221 215.836 114.283Z" fill="#3F3D56"/>
<path d="M245.464 86.0777C246.41 90.9975 243.25 96.4319 236.81 101.982C235.739 102.906 234.573 103.832 233.323 104.76C232.996 105.003 232.661 105.246 232.321 105.487C232.231 105.554 232.137 105.622 232.043 105.686C231.912 105.78 231.784 105.869 231.653 105.963C231.481 106.08 231.302 106.203 231.127 106.328C230.763 106.577 230.391 106.828 230.012 107.081C229.782 107.236 229.545 107.392 229.31 107.544C229.073 107.7 228.832 107.854 228.591 108.011C228.107 108.318 227.617 108.63 227.115 108.936C226.93 109.048 226.749 109.159 226.565 109.275C226.347 109.409 226.124 109.543 225.901 109.674C225.634 109.832 225.363 109.995 225.092 110.154C224.842 110.301 224.592 110.449 224.333 110.594C224.224 110.661 224.11 110.725 223.996 110.788C223.728 110.943 223.456 111.099 223.184 111.25C222.984 111.365 222.781 111.477 222.574 111.593C222.291 111.75 222.004 111.909 221.714 112.067C221.317 112.285 220.915 112.5 220.511 112.719C220.015 112.982 219.516 113.246 219.006 113.512C218.981 113.525 218.957 113.537 218.929 113.55C218.343 113.858 217.744 114.16 217.139 114.467C216.835 114.617 216.533 114.771 216.226 114.921C216.206 114.93 216.188 114.94 216.17 114.951C215.849 115.108 215.528 115.266 215.204 115.427C214.302 115.86 213.382 116.301 212.45 116.736C212.377 116.769 212.306 116.802 212.233 116.839C198.789 123.082 181.957 128.984 163.021 133.912C154.725 136.069 146.023 138.04 137.027 139.77C127.949 141.516 119.063 142.923 110.49 143.998C59.3174 150.421 19.2909 145.104 16.4102 130.123C16.2389 129.211 16.2037 128.278 16.3056 127.356C16.3397 127.414 16.3732 127.469 16.4111 127.526C24.32 140.318 63.7581 144.301 112.67 137.718C120.163 136.712 127.883 135.453 135.742 133.942C143.634 132.424 151.299 130.721 158.66 128.87C206.483 116.841 241.593 98.5185 244.178 83.7205C244.224 83.4825 244.259 83.2467 244.282 83.0131C244.851 83.9582 245.251 84.9952 245.464 86.0777Z" fill="#3F3D56"/>
<path d="M48.8794 119.77C42.7507 120.948 35.9834 120.882 35.5135 118.438C35.0436 115.994 41.3037 113.423 47.4324 112.245C53.5611 111.066 60.3284 111.132 60.7983 113.576C61.2682 116.02 55.0081 118.591 48.8794 119.77ZM47.5741 112.981C40.5577 114.331 35.9748 116.866 36.25 118.297C36.5252 119.728 41.7214 120.382 48.7378 119.033C55.7541 117.684 60.337 115.149 60.0618 113.718C59.7866 112.287 54.5904 111.632 47.5741 112.981Z" fill="#3F3D56"/>
<path d="M78.3535 132.05C72.2248 133.228 65.4576 133.162 64.9876 130.718C64.5177 128.275 70.7778 125.704 76.9065 124.525C83.0353 123.347 89.8025 123.413 90.2724 125.856C90.7423 128.3 84.4822 130.871 78.3535 132.05ZM77.0481 125.262C70.0319 126.611 65.449 129.146 65.7241 130.577C65.9993 132.008 71.1956 132.662 78.2118 131.313C85.2281 129.964 89.8111 127.429 89.5359 125.998C89.2607 124.567 84.0644 123.912 77.0481 125.262Z" fill="#3F3D56"/>
<path d="M210.911 88.612C204.782 89.7905 198.015 89.7245 197.545 87.2807C197.075 84.8369 203.335 82.2658 209.464 81.0873C215.592 79.9087 222.36 79.9748 222.83 82.4186C223.299 84.8624 217.039 87.4335 210.911 88.612ZM209.605 81.8238C202.589 83.173 198.006 85.7079 198.281 87.1391C198.556 88.5702 203.753 89.2247 210.769 87.8755C217.785 86.5263 222.368 83.9913 222.093 82.5602C221.818 81.1291 216.622 80.4746 209.605 81.8238Z" fill="#3F3D56"/>
<path d="M188.093 110.948C181.964 112.126 175.197 112.06 174.727 109.616C174.257 107.172 180.517 104.601 186.646 103.423C192.775 102.244 199.542 102.31 200.012 104.754C200.482 107.198 194.221 109.769 188.093 110.948ZM186.787 104.159C179.771 105.509 175.188 108.044 175.463 109.475C175.739 110.906 180.935 111.56 187.951 110.211C194.967 108.862 199.55 106.327 199.275 104.896C199 103.465 193.804 102.81 186.787 104.159Z" fill="#3F3D56"/>
<path d="M134.781 129.6C128.653 130.779 121.885 130.713 121.415 128.269C120.945 125.825 127.206 123.254 133.334 122.076C139.463 120.897 146.23 120.963 146.7 123.407C147.17 125.851 140.91 128.422 134.781 129.6ZM133.476 122.812C126.46 124.161 121.877 126.696 122.152 128.127C122.427 129.558 127.623 130.213 134.64 128.864C141.656 127.515 146.239 124.98 145.964 123.548C145.688 122.117 140.492 121.463 133.476 122.812Z" fill="#3F3D56"/>
<path d="M158.984 205.206C167.528 203.563 173.123 195.305 171.48 186.76C169.837 178.216 161.578 172.621 153.034 174.264C144.489 175.907 138.894 184.166 140.538 192.71C142.181 201.255 150.439 206.849 158.984 205.206Z" fill="#2F2E41"/>
<path d="M152.08 201.031L145.276 206.25L148.189 210.048L154.993 204.829L152.08 201.031Z" fill="#2F2E41"/>
<path d="M149.1 209.43C149.416 208.667 148.023 207.365 145.988 206.521C143.953 205.678 142.047 205.613 141.73 206.376C141.414 207.139 142.807 208.441 144.842 209.285C146.877 210.128 148.783 210.193 149.1 209.43Z" fill="#2F2E41"/>
<path d="M163.847 198.768L162.55 203.375L170.805 205.698L172.101 201.091L163.847 198.768Z" fill="#2F2E41"/>
<path d="M173.63 203.749C175.207 202.211 176.018 200.484 175.441 199.893C174.864 199.302 173.118 200.069 171.541 201.607C169.964 203.145 169.154 204.871 169.73 205.463C170.307 206.054 172.053 205.287 173.63 203.749Z" fill="#2F2E41"/>
<path d="M155.215 191.446C158.135 190.885 160.047 188.062 159.486 185.142C158.924 182.222 156.101 180.31 153.181 180.871C150.261 181.433 148.349 184.255 148.91 187.176C149.472 190.096 152.294 192.008 155.215 191.446Z" fill="white"/>
<path d="M155.289 184.898C155.843 184.081 155.624 182.967 154.801 182.409C153.978 181.851 152.862 182.062 152.309 182.879C151.755 183.696 151.973 184.811 152.796 185.369C153.619 185.926 154.735 185.716 155.289 184.898Z" fill="#3F3D56"/>
<path d="M164.977 170.557C164.108 164.785 158.239 160.883 151.867 161.842C145.496 162.801 141.035 168.257 141.904 174.03C142.773 179.802 147.418 180.259 153.789 179.3C160.16 178.341 165.846 176.33 164.977 170.557Z" fill="#001F3F"/>
<path d="M178.689 193.774C179.539 192.705 177.466 189.644 174.06 186.938C170.654 184.231 167.204 182.904 166.354 183.973C165.505 185.043 167.577 188.103 170.983 190.81C174.389 193.516 177.84 194.844 178.689 193.774Z" fill="#2F2E41"/>
<path d="M142.544 196.279C144.703 192.502 145.493 188.891 144.307 188.213C143.122 187.535 140.41 190.047 138.25 193.824C136.091 197.6 135.301 201.212 136.487 201.889C137.673 202.567 140.384 200.055 142.544 196.279Z" fill="#2F2E41"/>
<path d="M161.43 195.015C161.775 195.903 161.752 196.891 161.368 197.762C160.984 198.633 160.269 199.316 159.382 199.66C158.494 200.004 157.506 199.982 156.635 199.598C155.764 199.214 155.081 198.499 154.737 197.612L154.734 197.605C154.019 195.756 155.37 194.793 157.219 194.078C159.068 193.363 160.715 193.166 161.43 195.015Z" fill="white"/>
<path d="M133.036 211.219C132.84 211.256 132.638 211.215 132.474 211.103C132.309 210.992 132.195 210.819 132.158 210.624L123.802 167.17C123.764 166.975 123.806 166.772 123.917 166.608C124.029 166.443 124.201 166.329 124.397 166.292C124.592 166.254 124.794 166.296 124.959 166.407C125.124 166.519 125.237 166.691 125.275 166.887L133.631 210.341C133.668 210.536 133.627 210.738 133.515 210.903C133.404 211.068 133.231 211.181 133.036 211.219Z" fill="#CCCCCC"/>
<path d="M129.494 252.378C129.299 252.416 129.097 252.374 128.932 252.262C128.767 252.151 128.654 251.978 128.616 251.783L122.526 220.113C122.489 219.918 122.53 219.716 122.642 219.551C122.754 219.386 122.926 219.273 123.121 219.235C123.317 219.198 123.519 219.239 123.684 219.351C123.848 219.462 123.962 219.635 123.999 219.83L130.089 251.5C130.127 251.695 130.085 251.897 129.974 252.062C129.862 252.227 129.69 252.34 129.494 252.378Z" fill="#CCCCCC"/>
<path d="M152.822 220.779C152.627 220.817 152.424 220.775 152.26 220.664C152.095 220.552 151.981 220.38 151.944 220.185L143.588 176.731C143.55 176.535 143.592 176.333 143.703 176.168C143.815 176.004 143.987 175.89 144.183 175.853C144.378 175.815 144.58 175.857 144.745 175.968C144.91 176.08 145.023 176.252 145.061 176.447L153.417 219.901C153.454 220.097 153.413 220.299 153.301 220.464C153.19 220.628 153.017 220.742 152.822 220.779Z" fill="#CCCCCC"/>
<path d="M148.162 254.135C147.967 254.172 147.764 254.131 147.6 254.019C147.435 253.907 147.321 253.735 147.284 253.54L143.885 235.863C143.847 235.668 143.889 235.466 144 235.301C144.112 235.137 144.284 235.023 144.48 234.985C144.675 234.948 144.877 234.989 145.042 235.101C145.207 235.212 145.32 235.385 145.358 235.58L148.757 253.256C148.794 253.452 148.753 253.654 148.641 253.819C148.53 253.983 148.357 254.097 148.162 254.135Z" fill="#CCCCCC"/>
<path d="M145.84 160.64C145.645 160.678 145.443 160.636 145.278 160.525C145.113 160.413 145 160.241 144.962 160.045L141.563 142.369C141.525 142.174 141.567 141.972 141.679 141.807C141.79 141.642 141.963 141.529 142.158 141.491C142.353 141.453 142.555 141.495 142.72 141.607C142.885 141.718 142.998 141.891 143.036 142.086L146.435 159.762C146.473 159.957 146.431 160.16 146.319 160.324C146.208 160.489 146.035 160.603 145.84 160.64Z" fill="#CCCCCC"/>
<path d="M110.502 175.455C110.306 175.493 110.104 175.451 109.94 175.34C109.775 175.228 109.661 175.056 109.624 174.861L106.225 157.184C106.187 156.989 106.229 156.787 106.34 156.622C106.452 156.457 106.624 156.344 106.82 156.306C107.015 156.269 107.217 156.31 107.382 156.422C107.546 156.533 107.66 156.706 107.698 156.901L111.097 174.577C111.134 174.773 111.093 174.975 110.981 175.14C110.87 175.304 110.697 175.418 110.502 175.455Z" fill="#CCCCCC"/>
<path d="M174.932 164.975C174.737 165.013 174.534 164.971 174.37 164.86C174.205 164.748 174.091 164.576 174.054 164.38L170.655 146.704C170.617 146.509 170.659 146.307 170.77 146.142C170.882 145.977 171.054 145.864 171.25 145.826C171.445 145.789 171.647 145.83 171.812 145.942C171.977 146.053 172.09 146.226 172.128 146.421L175.527 164.097C175.564 164.293 175.523 164.495 175.411 164.659C175.3 164.824 175.127 164.938 174.932 164.975Z" fill="#CCCCCC"/>
<path d="M184.081 220.497C183.886 220.534 183.683 220.493 183.519 220.381C183.354 220.269 183.24 220.097 183.203 219.902L179.096 198.543C179.058 198.348 179.1 198.145 179.211 197.981C179.323 197.816 179.495 197.702 179.691 197.665C179.886 197.627 180.088 197.669 180.253 197.78C180.418 197.892 180.531 198.064 180.569 198.26L184.676 219.618C184.713 219.814 184.672 220.016 184.56 220.181C184.449 220.345 184.276 220.459 184.081 220.497Z" fill="#CCCCCC"/>
<path d="M172.962 242.11C172.767 242.148 172.565 242.106 172.4 241.994C172.235 241.883 172.122 241.71 172.084 241.515L165.994 209.845C165.957 209.65 165.998 209.448 166.11 209.283C166.221 209.118 166.394 209.005 166.589 208.967C166.784 208.93 166.987 208.971 167.151 209.083C167.316 209.194 167.43 209.367 167.467 209.562L173.557 241.232C173.595 241.427 173.553 241.629 173.441 241.794C173.33 241.959 173.158 242.072 172.962 242.11Z" fill="#CCCCCC"/>
<path d="M165.499 187.41C165.303 187.448 165.101 187.406 164.936 187.295C164.772 187.183 164.658 187.011 164.621 186.815L156.265 143.362C156.227 143.166 156.269 142.964 156.38 142.799C156.492 142.635 156.664 142.521 156.86 142.483C157.055 142.446 157.257 142.487 157.422 142.599C157.586 142.711 157.7 142.883 157.738 143.078L166.094 186.532C166.131 186.727 166.09 186.93 165.978 187.094C165.866 187.259 165.694 187.373 165.499 187.41Z" fill="#CCCCCC"/>
<path d="M273.573 262.515C274.457 261.429 272.372 258.266 268.914 255.448C265.457 252.631 261.938 251.227 261.053 252.312C260.169 253.398 262.254 256.561 265.711 259.379C269.169 262.196 272.688 263.6 273.573 262.515Z" fill="#2F2E41"/>
<path d="M265.925 260.025C267.097 251.183 260.879 243.065 252.037 241.893C243.195 240.721 235.077 246.939 233.905 255.781C232.733 264.623 238.951 272.741 247.793 273.913C256.635 275.085 264.753 268.867 265.925 260.025Z" fill="#2F2E41"/>
<path d="M259.021 269.059L254.203 269.986L255.863 278.618L260.681 277.692L259.021 269.059Z" fill="#2F2E41"/>
<path d="M249.385 270.912L244.567 271.839L246.227 280.471L251.045 279.545L249.385 270.912Z" fill="#2F2E41"/>
<path d="M256.975 280.07C259.193 279.643 260.861 278.623 260.701 277.792C260.541 276.96 258.613 276.632 256.396 277.058C254.178 277.485 252.51 278.504 252.67 279.336C252.83 280.168 254.758 280.496 256.975 280.07Z" fill="#2F2E41"/>
<path d="M247.3 281.722C249.517 281.295 251.185 280.276 251.025 279.444C250.865 278.613 248.938 278.284 246.721 278.711C244.503 279.137 242.835 280.157 242.995 280.988C243.155 281.82 245.082 282.148 247.3 281.722Z" fill="#2F2E41"/>
<path d="M241.101 238.925C241.421 232.949 247.027 228.391 253.622 228.744C260.218 229.096 265.305 234.226 264.986 240.202C264.666 246.177 259.972 247.099 253.376 246.746C246.781 246.394 240.782 244.9 241.101 238.925Z" fill="#CCCCCC"/>
<path d="M238.454 255.999C238.805 254.644 235.588 252.64 231.27 251.525C226.952 250.409 223.168 250.603 222.818 251.959C222.468 253.314 225.684 255.318 230.002 256.433C234.32 257.549 238.104 257.355 238.454 255.999Z" fill="#2F2E41"/>
<path d="M247.917 260.3C250.837 259.738 252.749 256.916 252.188 253.996C251.626 251.075 248.804 249.163 245.883 249.725C242.963 250.286 241.051 253.109 241.612 256.029C242.174 258.949 244.997 260.862 247.917 260.3Z" fill="white"/>
<path d="M244.702 255.298C245.675 255.111 246.312 254.17 246.125 253.196C245.938 252.223 244.997 251.585 244.024 251.773C243.05 251.96 242.413 252.901 242.6 253.874C242.787 254.847 243.728 255.485 244.702 255.298Z" fill="#3F3D56"/>
<path d="M249.403 268.271C250.623 268.036 251.422 266.857 251.187 265.636C250.953 264.416 249.773 263.617 248.553 263.852C247.332 264.086 246.533 265.266 246.768 266.486C247.003 267.706 248.182 268.505 249.403 268.271Z" fill="white"/>
<path d="M299.581 271.987L212.673 288.699C212.576 288.718 212.475 288.697 212.392 288.641C212.31 288.585 212.253 288.499 212.234 288.402C212.216 288.304 212.236 288.203 212.292 288.12C212.348 288.038 212.434 287.981 212.532 287.963L299.44 271.251C299.537 271.232 299.638 271.253 299.721 271.308C299.803 271.364 299.86 271.45 299.879 271.548C299.897 271.646 299.877 271.747 299.821 271.829C299.765 271.912 299.679 271.968 299.581 271.987Z" fill="#3F3D56"/>
</g>
<defs>
<clipPath id="clip0_75_30161">
<rect width="252.199" height="276.898" fill="white" transform="translate(0 47.6238) rotate(-10.8847)"/>
</clipPath>
</defs>
</svg>
