<svg width="48" height="48" viewBox="0 0 48 48" fill="none" xmlns="http://www.w3.org/2000/svg">
<circle cx="24" cy="24" r="24" fill="#AAF985" fill-opacity="0.3"/>
<path d="M24 24.4364C26.41 24.4364 28.3636 22.4827 28.3636 20.0727C28.3636 17.6628 26.41 15.7091 24 15.7091C21.59 15.7091 19.6364 17.6628 19.6364 20.0727C19.6364 22.4827 21.59 24.4364 24 24.4364Z" stroke="#064F09" stroke-width="2" stroke-linecap="round" stroke-linejoin="round"/>
<path d="M16.3636 33.1636V32.0727C16.3636 27.8553 19.7826 24.4363 24 24.4363C25.1712 24.4363 26.2808 24.7 27.2727 25.1712" stroke="#064F09" stroke-width="2" stroke-linecap="round" stroke-linejoin="round"/>
<path d="M29.0563 29.2529L30.1897 26.8496C30.3352 26.541 30.7556 26.541 30.9011 26.8496L32.0345 29.2529L34.5693 29.6406C34.8945 29.6904 35.0242 30.1088 34.7887 30.3488L32.9549 32.2182L33.3877 34.8592C33.4433 35.1984 33.1031 35.457 32.8121 35.2968L30.5454 34.0492L28.2787 35.2968C27.9877 35.457 27.6475 35.1984 27.7031 34.8592L28.1359 32.2182L26.3021 30.3488C26.0666 30.1088 26.1963 29.6904 26.5215 29.6406L29.0563 29.2529Z" stroke="#064F09" stroke-width="2" stroke-linecap="round" stroke-linejoin="round"/>
</svg>
